<?xml version="1.0" standalone="no"?><!DOCTYPE svg PUBLIC "-//W3C//DTD SVG 1.1//EN" "http://www.w3.org/Graphics/SVG/1.1/DTD/svg11.dtd"><svg class="icon" width="15px" height="15.00px" viewBox="0 0 1024 1024" version="1.1" xmlns="http://www.w3.org/2000/svg"><path fill="#626675" d="M512 950.86c-210.65 0-386.92-149.21-429.35-347.43H190.9L74.61 486.4 8.78 420.57C2.92 449.83 0 480.55 0 512s2.92 62.17 8.78 91.43C51.2 842.6 260.39 1024 512 1024c208.46 0 386.92-123.61 466.65-302.08l-55.59-55.59C860.16 832.37 699.98 950.86 512 950.86zM1015.22 420.57C972.8 181.39 763.61 0 512 0 303.54 0 125.08 123.61 45.35 302.08l55.59 56.32C163.11 192.37 324.02 73.14 512 73.14c210.65 0 386.92 149.21 429.35 347.43H833.1l116.29 116.29 65.83 65.83c5.85-29.26 8.78-59.25 8.78-90.7s-2.92-62.16-8.78-91.42z" /></svg>